<?xml version="1.0" encoding="utf-8"?>
<!-- Generator: Adobe Illustrator 19.2.1, SVG Export Plug-In . SVG Version: 6.00 Build 0)  -->
<svg version="1.1" id="Layer_1" xmlns="http://www.w3.org/2000/svg" xmlns:xlink="http://www.w3.org/1999/xlink" x="0px" y="0px"
	 viewBox="0 0 68.7 101.2" style="enable-background:new 0 0 68.7 101.2;" xml:space="preserve">
<style type="text/css">
	.st0{fill:#B6B4A9;}
</style>
<g>
	<path class="st0" d="M18.1,101.2c-1.5,0-3-0.6-4.2-1.7c-2.4-2.3-2.4-6.1-0.1-8.5l40.6-41.2L22.6,14c-1.9-2.2-5.1-2.6-7.6-1.1
		L14.8,13c-2.1,1.3-2.6,3.2-2.8,4.2c-0.2,1-0.2,3,1.4,4.8L34.7,46c2.1,2.4,2,5.9-0.2,8.2L15,74c-2.3,2.4-6.1,2.4-8.5,0.1
		c-2.4-2.3-2.4-6.1-0.1-8.5L22,49.7L4.5,30C1,26-0.6,20.8,0.2,15.5S4,5.6,8.5,2.8l0.2-0.1C16.2-1.9,25.8-0.5,31.6,6l35.5,39.9
		c2.1,2.4,2,5.9-0.2,8.2L22.4,99.4C21.2,100.6,19.6,101.2,18.1,101.2z"/>
</g>
</svg>
