<?xml version="1.0" encoding="utf-8"?>
<!-- Generator: Adobe Illustrator 19.2.1, SVG Export Plug-In . SVG Version: 6.00 Build 0)  -->
<svg version="1.1" id="Layer_1" xmlns="http://www.w3.org/2000/svg" xmlns:xlink="http://www.w3.org/1999/xlink" x="0px" y="0px"
	 viewBox="0 0 68.7 101.2" style="enable-background:new 0 0 68.7 101.2;" xml:space="preserve">
<style type="text/css">
	.st0{fill:#B6B4A9;}
</style>
<g>
	<path class="st0" d="M50.6,101.2c1.5,0,3-0.6,4.2-1.7c2.4-2.3,2.4-6.1,0.1-8.5L14.2,49.7L46,14c1.9-2.2,5.1-2.6,7.6-1.1l0.2,0.1
		c2.1,1.3,2.6,3.2,2.8,4.2c0.2,1,0.2,3-1.4,4.8L34,46c-2.1,2.4-2,5.9,0.2,8.2L53.7,74c2.3,2.4,6.1,2.4,8.5,0.1
		c2.4-2.3,2.4-6.1,0.1-8.5L46.7,49.7L64.1,30c3.5-4,5.1-9.3,4.3-14.5s-3.8-9.9-8.3-12.7l-0.2-0.1C52.5-1.9,42.9-0.5,37.1,6L1.5,45.9
		c-2.1,2.4-2,5.9,0.2,8.2l44.6,45.2C47.5,100.6,49,101.2,50.6,101.2z"/>
</g>
</svg>
