<?xml version="1.0" encoding="utf-8"?>
<!-- Generator: Adobe Illustrator 19.2.1, SVG Export Plug-In . SVG Version: 6.00 Build 0)  -->
<svg version="1.1" id="Layer_1" xmlns="http://www.w3.org/2000/svg" xmlns:xlink="http://www.w3.org/1999/xlink" x="0px" y="0px"
	 viewBox="0 0 101.2 68.7" style="enable-background:new 0 0 101.2 68.7;" xml:space="preserve">
<style type="text/css">
	.st0{fill:#B6B4A9;}
</style>
<g>
	<path class="st0" d="M0,50.6c0,1.5,0.6,3,1.7,4.2c2.3,2.4,6.1,2.4,8.5,0.1l41.2-40.6L87.2,46c2.2,1.9,2.6,5.1,1.1,7.6l-0.1,0.2
		c-1.3,2.1-3.2,2.6-4.2,2.8c-1,0.2-3,0.2-4.8-1.4L55.2,34c-2.4-2.1-5.9-2-8.2,0.2L27.2,53.7c-2.4,2.3-2.4,6.1-0.1,8.5
		c2.3,2.4,6.1,2.4,8.5,0.1l15.8-15.6l19.7,17.5c4,3.5,9.3,5.1,14.5,4.3s9.9-3.8,12.7-8.3l0.1-0.2c4.6-7.4,3.2-17.1-3.3-22.9
		L55.2,1.5c-2.4-2.1-6-2-8.2,0.2L1.8,46.3C0.6,47.5,0,49,0,50.6z"/>
</g>
</svg>
