<?xml version="1.0" encoding="utf-8"?>
<!-- Generator: Adobe Illustrator 19.2.1, SVG Export Plug-In . SVG Version: 6.00 Build 0)  -->
<svg version="1.1" id="Layer_1" xmlns="http://www.w3.org/2000/svg" xmlns:xlink="http://www.w3.org/1999/xlink" x="0px" y="0px"
	 viewBox="0 0 100 100" style="enable-background:new 0 0 100 100;" xml:space="preserve">
<style type="text/css">
	.st0{fill:#73C13E;}
</style>
<path class="st0" d="M92,81.8H8.2c-4.3,0-7.8-3.5-7.8-7.8V47.2c0-2.4,1.9-4.3,4.3-4.3S9,44.8,9,47.2v25.9h82.1V32.5l-3,2.4
	L60.4,55.5c-6.2,4.6-14.5,4.6-20.7,0L2.1,27.7c-1.5-1.1-2.1-3.1-1.5-4.8c0.6-1.8,2.2-3,4.1-3h57.6c2.4,0,4.3,1.9,4.3,4.3
	s-1.9,4.3-4.3,4.3H17.8l27.1,20.1c3.1,2.3,7.3,2.3,10.4,0l32.5-24.4c2.3-1.8,5.2-2.1,7.8-0.9c2.6,1.2,4.2,3.8,4.2,6.7v44
	C99.8,78.3,96.3,81.8,92,81.8z"/>
</svg>
