<?xml version="1.0" encoding="utf-8"?>
<!-- Generator: Adobe Illustrator 19.2.1, SVG Export Plug-In . SVG Version: 6.00 Build 0)  -->
<svg version="1.1" id="Layer_1" xmlns="http://www.w3.org/2000/svg" xmlns:xlink="http://www.w3.org/1999/xlink" x="0px" y="0px"
	 viewBox="0 0 512 512" style="enable-background:new 0 0 512 512;" xml:space="preserve">
<style type="text/css">
	.st0{fill:#FFFFFF;}
</style>
<g id="icomoon-ignore">
</g>
<g>
	<path class="st0" d="M210,300.2c-23.5-18-57.3-22.9-100.6-14.4c-0.1,0-0.1,0-0.2,0c-34.7,7.3-52.2,17.5-55,32.2
		c-2.1,10.8,4.1,21.1,18.5,30.7c0.4,0.2,0.7,0.5,1.1,0.7c4.9,2.4,10.1,5.2,15.6,8.2c15.8,8.5,33.6,18.2,51.5,23.1
		c22.3,6.1,41.2,3.5,56.2-7.7c1.1-0.8,2-1.8,2.7-3c5.5-9.2,5-21.3-1.3-31.5c-8.9-14.2-26.4-21.7-46.9-20c-5.8,0.5-10.1,5.6-9.6,11.4
		c0.5,5.8,5.6,10.1,11.4,9.6c12.5-1,22.7,2.7,27.3,10.1c1.7,2.7,2.3,5.7,1.8,8c-22.4,14.3-54.5-3.1-82.9-18.5
		c-5.4-3-10.6-5.7-15.6-8.2c-6.9-4.7-8.8-7.9-8.9-8.8c0.3-0.7,4.6-8.3,38.5-15.5c36.9-7.2,64.9-3.7,83.4,10.3
		c18.7,14.2,21.4,34.7,21.7,37.3v147.4c0,5.8,4.7,10.5,10.5,10.5c5.8,0,10.5-4.7,10.5-10.5V353.6c0-0.2,0-0.5,0-0.7
		C239.6,351.6,237.2,321.1,210,300.2z"/>
	<path class="st0" d="M216.9,68.9c-23.5-18-57.3-22.9-100.6-14.4c-0.1,0-0.1,0-0.2,0c-34.7,7.3-52.2,17.5-55,32.2
		c-2.1,10.8,4.1,21.1,18.5,30.7c0.4,0.2,0.7,0.5,1.1,0.7c4.9,2.4,10.1,5.2,15.6,8.2c15.8,8.5,33.6,18.2,51.5,23.1
		c22.3,6.1,41.2,3.5,56.2-7.7c1.1-0.8,2-1.8,2.7-3c5.5-9.2,5-21.3-1.3-31.5c-8.9-14.2-26.4-21.7-46.9-20c-5.8,0.5-10.1,5.6-9.6,11.4
		c0.5,5.8,5.6,10.1,11.4,9.6c12.5-1,22.7,2.7,27.3,10.1c1.7,2.7,2.3,5.7,1.8,8c-22.4,14.3-54.5-3.1-82.9-18.5
		c-5.4-3-10.6-5.7-15.6-8.2c-6.9-4.7-8.8-7.9-8.9-8.8c0.3-0.7,4.6-8.3,38.5-15.5c36.9-7.2,64.9-3.7,83.4,10.3
		c18.7,14.2,21.4,34.7,21.7,37.3v147.4c0,5.8,4.7,10.5,10.5,10.5c5.8,0,10.5-4.7,10.5-10.5V122.3c0-0.2,0-0.5,0-0.7
		C246.4,120.3,244,89.7,216.9,68.9z"/>
	<path class="st0" d="M457,202.9c-5.5-16.8-27.9-25.6-74.8-29.5c-0.3,0-0.6,0-0.9,0c-57.2,0-87.2,23.9-102.3,43.9
		c-16.6,21.9-19.2,44-19.3,44.9c0,0.4-0.1,0.8-0.1,1.2v238.2c0,5.8,4.7,10.5,10.5,10.5c5.8,0,10.5-4.7,10.5-10.5V264
		c1-6.9,12.6-69.3,100.2-69.5c51,4.2,55.6,13.9,56,15c0.1,0.2,1.7,6-15.6,21l-3.5,2.6c-26.9,20.4-60.2,45.7-98,49.5
		c-3.4-3.3-5.9-9.5-4.6-16.7c2.7-14.4,18.4-24.5,43-27.8c5.8-0.8,9.8-6.1,9.1-11.8c-0.8-5.8-6.1-9.8-11.8-9.1
		c-48.7,6.4-58.9,33.5-61,44.8c-3.1,16.6,4,33.3,17.3,40.6c1.7,1,3.7,1.4,5.7,1.3c45.7-2.8,84.7-32.4,113.1-54l3.8-2.9
		c0.2-0.1,0.4-0.3,0.5-0.4C442,240.5,463.3,222,457,202.9z"/>
	<path class="st0" d="M271.1,34.4c14.6-12.3,34-16.1,57.7-11.4c-2.9,2.7-8,6.8-16.8,12.5c-12.9,8.4-28.8,17-39.6,22.8
		c-5.1,2.7-7.1,9.1-4.3,14.3c1.9,3.6,5.5,5.6,9.3,5.6c1.7,0,3.4-0.4,5-1.2c59.8-31.9,71.4-45.2,71.3-57.3
		c-0.1-6.1-3.6-11.3-9.7-14.4c-0.6-0.3-1.3-0.6-2-0.8c-23.9-6.3-58-8.9-85.2,14.6c-16.4,14.2-22.2,31.2-22.4,32
		c-1.8,5.5,1.1,11.5,6.7,13.4c5.5,1.8,11.5-1.1,13.3-6.6C254.2,57.6,258.8,44.7,271.1,34.4z"/>
</g>
</svg>
