<?xml version="1.0" encoding="utf-8"?>
<!-- Generator: Adobe Illustrator 19.2.1, SVG Export Plug-In . SVG Version: 6.00 Build 0)  -->
<svg version="1.1" id="Layer_1" xmlns="http://www.w3.org/2000/svg" xmlns:xlink="http://www.w3.org/1999/xlink" x="0px" y="0px"
	 viewBox="0 0 512 512" style="enable-background:new 0 0 512 512;" xml:space="preserve">
<style type="text/css">
	.st0{fill:#FFFFFF;}
</style>
<g id="icomoon-ignore">
</g>
<g>
	<path class="st0" d="M401.2,299c11.4-13.5,21.4-28.2,29.7-43.7c4-6.3,32.3-53.6,6.9-119.8c-0.1-0.3-0.2-0.5-0.3-0.8
		c-7.3-15.6-18-28.4-31.9-38c-17.5-12.2-37.5-19.2-59.2-20.7c-16.6-1.2-32.9,1.2-48.3,7.2c-12.2,4.7-23.3,11.4-32.9,19.8
		c-2.8,2.4-6.3,3.8-10,3.8l-0.2,0c-3.9,0.1-7.6-1.4-10.7-4c-7.5-6.5-16-12.1-25.3-16.4c-19.6-9.2-40.7-12.4-62.6-9.7
		c-14.1,1.8-27.9,6.2-40.8,13.1c-18.4,9.8-32.4,23.8-41.6,41.6c-7.9,15.2-11.3,38.1-11.8,54.4c-0.5,14.1,1.4,28.6,5.7,43.1
		c3,10.1,7.6,20.7,14.2,32.2c7.8,13.6,17,26.7,27.4,39.1c11.5,13.5,23.1,24.9,35.6,34.8c2.3,2.2,12.5,11.5,25.5,18.9
		c0,0,31.1,20.1,59.1,1.9c21.1-13.7,31-29.1,30.6-44.2c-0.5-17-14-26.3-16.6-28c-4.4-2.9-8.9-6.1-13.6-9.6c-5-3.7-9.6-7.3-13.9-10.9
		c-4.6-3.8-9-8.3-13.4-13.7c-3.9-4.9-7.4-10-10.3-15.4c-2.3-4.2-3.8-7.8-4.8-11.2c-1.4-4.9-2-9.8-1.9-14.5
		c0.2-5.5,1.3-10.2,3.4-14.5c2.5-5,6.1-8.9,11.2-11.7c3.8-2.1,7.7-3.5,11.9-4c6.3-0.8,12.2,0.1,17.8,2.9c3.7,1.8,6.8,4.1,9.4,7.1
		c0.5,0.6,1.1,1.3,1.8,2.2c2.9,3.7,7.3,5.8,12.1,5.8h0.1c4.8,0,9.2-2.2,12.1-5.9c0,0,0.1-0.1,0.1-0.1c3.6-4.7,8-8,13.2-10.1
		c4.4-1.8,8.8-2.5,13.5-2.1c6.4,0.5,12.1,2.5,17.2,6.3c3.7,2.7,6.4,6.1,8.4,10.5c1.4,3,2.2,6.3,2.7,10.1c0.4,3.6,0.4,7.2-0.1,11.1
		c-0.7,5.4-2.4,10.6-4.9,15.6c-3.1,6.2-6.9,12-11.3,17.4c-5.5,6.8-11.3,12.5-17.8,17.5c-5.3,4-6.3,11.5-2.3,16.8
		c4,5.3,11.5,6.3,16.8,2.3c8-6.1,15.4-13.3,22-21.5c5.3-6.7,10-13.9,13.9-21.5c3.8-7.4,6.2-15.2,7.3-23.2c0.8-5.9,0.9-11.6,0.2-17.2
		c-0.7-6.2-2.2-11.7-4.6-17c-3.7-8.2-9.1-15-16.1-20.1c-8.8-6.4-18.7-10-29.6-10.8c-8.4-0.6-16.6,0.6-24.3,3.8
		c-6.1,2.5-11.6,5.9-16.4,10.3c-3.8-3.5-8-6.4-12.7-8.6c-9.9-4.8-20.5-6.6-31.5-5.1c-7.1,0.9-13.9,3.2-20.4,6.8
		c-9.3,5.2-16.4,12.6-21,22c-3.6,7.4-5.6,15.3-5.9,24.3c-0.2,7.1,0.7,14.5,2.7,21.7c1.4,5.1,3.7,10.4,6.8,16.2
		c3.6,6.6,7.9,13,12.7,19c5.4,6.7,10.9,12.3,16.8,17.1c4.6,3.8,9.5,7.6,14.9,11.6c5.1,3.8,10,7.2,14.8,10.4c0.1,0.1,0.3,0.2,0.4,0.2
		c0.1,0,5.7,3.6,5.3,8.3c-1,14.6-23.5,25.4-23.5,25.4c-8.3,5.7-20.9,0.8-30.1-4.4c-12-6.7-21.4-15.8-21.5-15.9
		c-0.3-0.3-0.6-0.6-0.9-0.8c-11.4-9-22-19.4-32.5-31.8c-9.5-11.2-17.9-23.2-24.9-35.5c-5.7-9.9-9.6-18.8-12.1-27.2
		c-3.5-12-5.1-24-4.7-35.5c0.5-14.1,3.5-33.3,9.2-44.3c7-13.6,17.4-23.9,31.6-31.5c10.3-5.5,21.3-9,32.5-10.4
		c17.4-2.2,34,0.4,49.5,7.6c7.3,3.4,13.9,7.7,19.7,12.8c7.5,6.6,17,10.1,26.8,9.9l0.2,0c9.3-0.2,18.3-3.6,25.3-9.8
		c7.6-6.6,16-11.7,25.8-15.5c12.1-4.7,24.8-6.6,37.9-5.6c17.4,1.2,33.3,6.8,47.2,16.5c10.4,7.3,18.2,16.5,23.7,28.2
		c9.1,23.9,11.1,47.6,5.9,70.4c-3.9,17.2-10.7,27.5-10.8,27.6c-0.3,0.4-0.5,0.7-0.7,1.1c-7.6,14.2-16.8,27.8-27.2,40.2
		c-0.1,0.1-0.1,0.1-0.2,0.2c-40.1,49.9-113.8,103.9-114.5,104.4c-0.2,0.1-0.4,0.3-0.6,0.5c-0.3,0.3-28.5,23.6-51,38.9
		C123.3,362.4,83.3,315.9,70.3,298.7c-48.6-64-59-130.9-31-198.9c25.4-47.9,68-54.3,93.5-58.1c1.5-0.2,2.9-0.4,4.2-0.6
		c45.5-2.9,78.1,13.6,78.4,13.8c5.9,3.1,13.1,0.8,16.2-5.1c3.1-5.9,0.8-13.1-5.1-16.2c-1.6-0.8-38.7-19.9-91.6-16.4
		c-0.4,0-0.7,0.1-1.1,0.1c-1.4,0.2-3,0.5-4.6,0.7c-28.1,4.2-80.4,12-111.4,71.1c-0.2,0.3-0.3,0.6-0.5,1c-4.7,11.2-17,41-17.4,80.9
		c-0.4,48.9,16.8,96.8,51.2,142.1C93.3,368.8,176,428.7,209.6,451.9c2,1.4,4.4,2.1,6.8,2.1c2.2,0,4.5-0.6,6.4-1.9
		c23.4-14.9,56.1-41.7,59.7-44.7C288.5,403,360,350.2,401.2,299z"/>
	<path class="st0" d="M509.2,147.2c-2-17.1-5.9-32.4-12-46.8c-9-21.2-22.1-37.9-41.3-52.6c-22.9-17.6-48.9-27.7-77.4-30
		c-6.4-1.1-48.3-7.2-97.1,15.6c-6,2.8-8.6,9.9-5.8,15.9c2.8,6,9.9,8.6,15.9,5.8c44.5-20.8,82.8-13.7,83.1-13.7
		c0.5,0.1,0.9,0.2,1.4,0.2c24,1.9,46,10.4,65.3,25.2c15.8,12.1,26.6,25.8,33.9,43c5.2,12.3,8.6,25.4,10.2,40.1
		c1.3,10.9,3.9,33.7,2,48.4c-2.6,20.3-8.5,40.1-17.6,58.8c-10.4,21.5-23,41.8-37.3,60.6c-17.7,23.1-29.4,35.7-59.6,64.1
		c-30.8,28.9-113.1,91.9-113.9,92.6c-5.3,4-6.3,11.5-2.2,16.8c2.4,3.1,5.9,4.7,9.5,4.7c2.5,0,5.1-0.8,7.3-2.5
		c3.4-2.6,84.1-64.4,115.8-94.1c31.4-29.5,43.6-42.6,62.2-67c15.3-20,28.7-41.8,39.8-64.7c10.2-21,16.9-43.3,19.9-66.2
		C513.1,185.9,511.4,166.2,509.2,147.2z"/>
</g>
</svg>
