<svg id="Layer_1" data-name="Layer 1" xmlns="http://www.w3.org/2000/svg" viewBox="0 0 519.64 97.26"><defs><style>.cls-1{fill:#73c13e;}.cls-2{opacity:0.3;}</style></defs><title>logo</title><path class="cls-1" d="M153.83,35.62a0.71,0.71,0,0,1-1.13.56A16.77,16.77,0,0,0,143,33.07c-9.2,0-16.23,7.68-16.23,16.77s7,16.66,16.12,16.66a16.32,16.32,0,0,0,9.81-3.32,0.71,0.71,0,0,1,1.14.56v3.72a1.41,1.41,0,0,1-.75,1.25,22.38,22.38,0,0,1-10,2.47A21.26,21.26,0,0,1,121.65,50a21.58,21.58,0,0,1,21.84-21.62,20.05,20.05,0,0,1,9.62,2.35,1.41,1.41,0,0,1,.73,1.24v3.65Z" transform="translate(-1.57 -1.43)"/><path class="cls-1" d="M206.15,49.79a21.51,21.51,0,0,1-43,0A21.51,21.51,0,0,1,206.15,49.79Zm-5.12,0c0-9-6.75-16.61-16.39-16.61s-16.39,7.57-16.39,16.61A16.39,16.39,0,1,0,201,49.79Z" transform="translate(-1.57 -1.43)"/><path class="cls-1" d="M224.07,42.29H224l-4.85,27.43a0.73,0.73,0,0,1-.72.6h-4a0.73,0.73,0,0,1-.72-0.87l8-39.32a0.73,0.73,0,0,1,1.38-.15l13,21.66a0.73,0.73,0,0,0,1.34,0l13-21.66a0.73,0.73,0,0,1,1.38.15l8,39.32a0.73,0.73,0,0,1-.72.87h-4a0.73,0.73,0,0,1-.72-0.6l-4.85-27.43h-0.11l-12.05,19.1a0.73,0.73,0,0,1-1.33,0Z" transform="translate(-1.57 -1.43)"/><path class="cls-1" d="M274.95,70.32h-3a1.06,1.06,0,0,1-1.06-1.06V30.31a1.06,1.06,0,0,1,1.06-1.06h6.31c12.63,0,16.56,5.63,16.56,13.14,0,8.66-6.59,12-14.38,12h-4.07a0.35,0.35,0,0,0-.35.35V69.26A1.06,1.06,0,0,1,274.95,70.32ZM276,49.45a0.35,0.35,0,0,0,.35.35h2.55c5.23,0,10.89-1,10.89-7.52s-6.1-8.46-11.16-8.46h-2.28a0.35,0.35,0,0,0-.35.35V49.45Z" transform="translate(-1.57 -1.43)"/><path class="cls-1" d="M306.27,60.44L302,69.9a0.71,0.71,0,0,1-.64.41h-3.95a0.71,0.71,0,0,1-.64-1l18.19-39.71a1.06,1.06,0,0,1,1.92,0L335,69.32a0.71,0.71,0,0,1-.64,1h-3.95a0.71,0.71,0,0,1-.64-0.41l-4.31-9.47a0.71,0.71,0,0,0-.64-0.41H306.92A0.71,0.71,0,0,0,306.27,60.44Zm9.29-21L308.8,54.85a0.35,0.35,0,0,0,.32.49h13.52a0.35,0.35,0,0,0,.32-0.49l-6.76-15.38A0.35,0.35,0,0,0,315.56,39.46Z" transform="translate(-1.57 -1.43)"/><path class="cls-1" d="M363.48,36.52a1.06,1.06,0,0,1-1.41-.3,6.85,6.85,0,0,0-6.05-3c-3.27,0-6.86,2.23-6.86,5.83,0,3.21,3.16,4.9,5.72,5.88L357.82,46c5.83,2.29,10.18,5.5,10.18,12.36,0,7.46-5.77,12.8-13.13,12.8a12.72,12.72,0,0,1-12.51-10.44,1.06,1.06,0,0,1,.82-1.26l3-.63a1.05,1.05,0,0,1,1.26.88,7.77,7.77,0,0,0,15.46-1.35c0-4.41-3.54-6.32-7.08-7.79L353,49.4c-4.68-2-8.93-4.68-8.93-10.4,0-6.64,5.88-10.62,12.09-10.62a11.65,11.65,0,0,1,10,5.25,1.06,1.06,0,0,1-.33,1.51Z" transform="translate(-1.57 -1.43)"/><path class="cls-1" d="M398.17,36.52a1.06,1.06,0,0,1-1.41-.3,6.85,6.85,0,0,0-6.05-3c-3.27,0-6.86,2.23-6.86,5.83,0,3.21,3.16,4.9,5.72,5.88L392.51,46c5.83,2.29,10.18,5.5,10.18,12.36,0,7.46-5.77,12.8-13.13,12.8a12.72,12.72,0,0,1-12.51-10.44,1.06,1.06,0,0,1,.82-1.26l3-.63a1.05,1.05,0,0,1,1.26.88,7.77,7.77,0,0,0,15.46-1.35c0-4.41-3.54-6.32-7.08-7.79l-2.83-1.2c-4.68-2-8.93-4.68-8.93-10.4,0-6.64,5.88-10.62,12.09-10.62a11.65,11.65,0,0,1,10,5.25,1.06,1.06,0,0,1-.33,1.51Z" transform="translate(-1.57 -1.43)"/><path class="cls-1" d="M80.58,74.52a1.72,1.72,0,0,1-1.37-2.75A36.05,36.05,0,0,0,71,20.43a1.72,1.72,0,1,1,2-2.82,39.49,39.49,0,0,1,9,56.22A1.71,1.71,0,0,1,80.58,74.52Z" transform="translate(-1.57 -1.43)"/><path class="cls-1" d="M67.73,74.31a1.72,1.72,0,0,1-1.06-3.07A26.89,26.89,0,0,0,68.05,30a1.72,1.72,0,0,1,2.29-2.56,30.32,30.32,0,0,1-1.56,46.48A1.71,1.71,0,0,1,67.73,74.31Z" transform="translate(-1.57 -1.43)"/><path class="cls-1" d="M50.2,98.68H49.62a48.63,48.63,0,0,1-33.79-83,48.63,48.63,0,0,1,63.23-4.73,1.72,1.72,0,1,1-2,2.76A45.2,45.2,0,0,0,5,50,45.34,45.34,0,0,0,49.66,95.25H50.2a44.85,44.85,0,0,0,26.17-8.34,2.7,2.7,0,0,0,1.13-2,2.73,2.73,0,0,0-.86-2.18l-0.19-.18A2.77,2.77,0,0,0,73,82.3a39.49,39.49,0,1,1-23-71.72A39.63,39.63,0,0,1,60.2,11.86a6.26,6.26,0,0,1,4.24,8.38l0,0.08A6.26,6.26,0,0,1,57,24,26.9,26.9,0,0,0,23.31,49.68,27,27,0,0,0,50,76.94a27,27,0,0,0,4.69-.38,2.78,2.78,0,0,0,1.83-1.17A2.85,2.85,0,0,0,57,73.21l0-.09a2.85,2.85,0,0,0-3.3-2.26,21.11,21.11,0,0,1-24.6-21A21.09,21.09,0,0,1,50.2,29a1.72,1.72,0,0,1,0,3.43A17.66,17.66,0,0,0,32.54,49.9a17.67,17.67,0,0,0,20.6,17.57,6.27,6.27,0,0,1,7.24,5l0,0.09a6.25,6.25,0,0,1-1,4.79,6.19,6.19,0,0,1-4.08,2.6,30.86,30.86,0,0,1-5.28.43,30.32,30.32,0,0,1,.17-60.64,30.42,30.42,0,0,1,7.71,1A2.82,2.82,0,0,0,61.23,19l0-.08a2.77,2.77,0,0,0-.1-2.31,2.85,2.85,0,0,0-1.82-1.47A36,36,0,1,0,50.2,86.1,35.8,35.8,0,0,0,71,79.5,6.21,6.21,0,0,1,78.8,80L79,80.2a6.16,6.16,0,0,1-.63,9.51A48.27,48.27,0,0,1,50.2,98.68Z" transform="translate(-1.57 -1.43)"/><path class="cls-1" d="M64.33,65.06a1.72,1.72,0,0,1-1.25-2.89,17.66,17.66,0,0,0-3.56-27.08,1.72,1.72,0,1,1,1.81-2.91,21.09,21.09,0,0,1,4.25,32.34A1.71,1.71,0,0,1,64.33,65.06Z" transform="translate(-1.57 -1.43)"/><path class="cls-1" d="M88.86,78.33a1.72,1.72,0,0,1-1.41-2.69A45.21,45.21,0,0,0,85.66,22a1.72,1.72,0,0,1,2.69-2.13,48.64,48.64,0,0,1,1.93,57.69A1.71,1.71,0,0,1,88.86,78.33Z" transform="translate(-1.57 -1.43)"/><g class="cls-2"><path class="cls-1" d="M418.9,51V30a0.65,0.65,0,0,0-.65-0.65h-3.82a0.65,0.65,0,0,0-.65.65V52.93a0.65,0.65,0,0,0,.94.58l3.82-1.91A0.65,0.65,0,0,0,418.9,51Z" transform="translate(-1.57 -1.43)"/><path class="cls-1" d="M438,59.05a0.65,0.65,0,0,0,.26-0.89,17.16,17.16,0,0,1-2.09-8.25,16.4,16.4,0,1,1,32.79,0,16.21,16.21,0,0,1-14.53,16.5,0.65,0.65,0,0,0-.59.64v3.52a0.66,0.66,0,0,0,.71.65,21.57,21.57,0,0,0,19.53-21.31,21.52,21.52,0,1,0-40.18,10.58,0.65,0.65,0,0,0,.87.25Z" transform="translate(-1.57 -1.43)"/><path class="cls-1" d="M521.21,41.82V30a0.65,0.65,0,0,0-.65-0.65h-3.82a0.65,0.65,0,0,0-.65.65V43.73a0.65,0.65,0,0,0,.94.58l3.82-1.91A0.65,0.65,0,0,0,521.21,41.82Z" transform="translate(-1.57 -1.43)"/><path class="cls-1" d="M490.94,40.38l10.64,11.15a0.65,0.65,0,0,0,.76.13L505.69,50a0.65,0.65,0,0,0,.18-1L486.38,28.55a0.65,0.65,0,0,0-1.12.45V59.15a0.65,0.65,0,0,0,.94.58L490,57.82a0.65,0.65,0,0,0,.36-0.58V40.6A0.32,0.32,0,0,1,490.94,40.38Z" transform="translate(-1.57 -1.43)"/></g></svg>