<?xml version="1.0" encoding="utf-8"?>
<!-- Generator: Adobe Illustrator 20.0.0, SVG Export Plug-In . SVG Version: 6.00 Build 0)  -->
<svg version="1.1" id="Layer_1" xmlns="http://www.w3.org/2000/svg" xmlns:xlink="http://www.w3.org/1999/xlink" x="0px" y="0px"
	 viewBox="0 0 521.8 99.8" style="enable-background:new 0 0 521.8 99.8;" xml:space="preserve">
<style type="text/css">
	.st0{fill:#EAE9DA;}
	.st1{opacity:0.6;}
	.st2{clip-path:url(#SVGID_2_);fill:#EAE9DA;}
	.st3{clip-path:url(#SVGID_4_);fill:#EAE9DA;}
	.st4{clip-path:url(#SVGID_6_);fill:#EAE9DA;}
	.st5{clip-path:url(#SVGID_8_);fill:#EAE9DA;}
	.st6{font-family:'AvenirNext-Medium';}
	.st7{font-size:23.6px;}
	.st8{fill:none;}
</style>
<path class="st0" d="M80.2,74.3c-0.4,0-0.7-0.1-1-0.3c-0.8-0.6-0.9-1.6-0.3-2.4c4.6-6.1,7.1-13.3,7.3-20.9
	c0.3-12.1-5.5-23.5-15.5-30.4c-0.8-0.5-1-1.6-0.4-2.4c0.5-0.8,1.6-1,2.4-0.4c10.9,7.6,17.3,20,17,33.3c-0.2,8.3-2.9,16.3-7.9,22.9
	C81.2,74.1,80.7,74.3,80.2,74.3"/>
<path class="st0" d="M67.3,74.1c-0.5,0-1-0.2-1.4-0.7c-0.6-0.7-0.5-1.8,0.3-2.4c6.2-4.8,10-12.1,10.3-20c0.4-8.1-2.9-15.8-8.9-21.2
	c-0.7-0.6-0.8-1.7-0.1-2.4c0.6-0.7,1.7-0.8,2.4-0.1c6.8,6.1,10.5,14.8,10.1,23.9c-0.4,8.9-4.6,17.1-11.6,22.5
	C68.1,74,67.7,74.1,67.3,74.1"/>
<path class="st0" d="M49.8,98.5c-0.2,0-0.4,0-0.6,0c-12.9-0.1-24.9-5.3-34-14.5S1.1,62.7,1.2,49.8c0-13,5.1-25.2,14.3-34.3
	C24.6,6.3,36.8,1.3,49.8,1.3c10.5,0,20.5,3.3,28.9,9.5c0.8,0.6,0.9,1.6,0.4,2.4c-0.6,0.8-1.6,0.9-2.4,0.4
	c-7.8-5.8-17.1-8.8-26.8-8.8C37.8,4.8,26.5,9.5,18,18C9.3,26.4,4.6,37.8,4.6,49.8c0,24.7,20,45,44.7,45.3c0.2,0,0.4,0,0.5,0
	c9.5,0,18.5-2.9,26.2-8.3c0.7-0.5,1.1-1.2,1.1-2c0.1-0.8-0.3-1.6-0.9-2.2L76,82.3c-0.9-0.9-2.4-1-3.5-0.2
	c-6.7,4.7-14.6,7.2-22.8,7.2c-21.8,0-39.5-17.7-39.5-39.5c0-10.5,4.1-20.4,11.4-27.8c7.4-7.4,17.2-11.6,27.8-11.6
	c3.5,0,6.9,0.4,10.3,1.3c1.7,0.5,3.2,1.6,4,3.2s0.9,3.5,0.2,5.1v0.1c-1.2,2.9-4.3,4.5-7.4,3.7c-2.2-0.6-4.5-0.9-6.8-0.9
	c-7.1,0-13.8,2.8-18.9,7.8s-7.9,11.7-8,18.8c-0.1,7.2,2.6,14,7.7,19.2s11.8,8,19,8.1c1.6,0,3.2-0.1,4.7-0.4c0.7-0.1,1.4-0.5,1.8-1.2
	c0.4-0.6,0.6-1.4,0.5-2.2v-0.1c-0.3-1.5-1.7-2.5-3.3-2.3c-1.2,0.3-2.6,0.4-4,0.4c-11.4-0.3-20.6-9.8-20.5-21.3
	c0-5.6,2.3-10.8,6.2-14.8c4-3.9,9.3-6.1,14.9-6.1c0.9,0,1.7,0.8,1.7,1.7c0,0.9-0.8,1.7-1.7,1.7c-4.7,0-9.1,1.8-12.4,5.1
	c-3.3,3.3-5.2,7.7-5.2,12.4c-0.1,9.6,7.6,17.5,17.2,17.8c1.2,0,2.3,0,3.4-0.2c3.4-0.6,6.6,1.6,7.2,5v0.1c0.3,1.7,0,3.4-1,4.8
	s-2.4,2.3-4.1,2.6c-1.7,0.3-3.5,0.4-5.3,0.4c-8.1,0-15.7-3.3-21.4-9.1c-5.7-5.8-8.8-13.5-8.7-21.6c0.1-8,3.3-15.5,9-21.2
	c5.7-5.6,13.3-8.7,21.3-8.7c2.6,0,5.2,0.3,7.7,1c1.4,0.4,2.8-0.4,3.3-1.7v-0.1c0.3-0.8,0.3-1.6-0.1-2.3c-0.4-0.7-1-1.3-1.8-1.5
	c-3-0.8-6.2-1.2-9.4-1.2c-9.6,0.1-18.6,3.8-25.4,10.6c-6.7,6.8-10.4,15.8-10.4,25.4c0,19.9,16.2,36,36,36c7.5,0,14.7-2.3,20.8-6.6
	c2.4-1.7,5.7-1.5,7.8,0.5l0.2,0.2c1.4,1.3,2.1,3.1,1.9,4.9c-0.1,1.8-1.1,3.5-2.6,4.6C69.7,95.4,60,98.5,49.8,98.5"/>
<path class="st0" d="M63.9,64.9c-0.4,0-0.8-0.2-1.2-0.5C62,63.8,62,62.7,62.6,62c3.1-3.3,4.8-7.6,4.8-12.1c0-6.1-3.1-11.8-8.3-15
	c-0.8-0.5-1.1-1.6-0.6-2.4c0.5-0.8,1.6-1.1,2.4-0.5c6.2,3.9,10,10.6,10,17.9c0,5.4-2,10.5-5.7,14.4C64.8,64.7,64.4,64.9,63.9,64.9"
	/>
<path class="st0" d="M88.5,78.2c-0.3,0-0.7-0.1-1-0.3c-0.8-0.5-1-1.6-0.4-2.4c5.5-8,8.2-17.4,7.9-27.1c-0.3-9.7-3.7-18.9-9.7-26.5
	c-0.6-0.7-0.5-1.8,0.3-2.4c0.7-0.6,1.8-0.5,2.4,0.3c6.5,8.2,10.1,18.1,10.4,28.5c0.3,10.5-2.6,20.6-8.5,29.2
	C89.5,77.9,89,78.2,88.5,78.2"/>
<path class="st0" d="M153.4,18.9c0,0.6-0.7,0.9-1.1,0.6c-2.8-2-6.3-3.1-9.7-3.1c-9.2,0-16.2,7.7-16.2,16.8c0,9,7,16.7,16.1,16.7
	c3.5,0,7-1.2,9.8-3.3c0.5-0.4,1.1,0,1.1,0.6v3.7c0,0.5-0.3,1-0.8,1.2c-3,1.6-6.7,2.5-10,2.5c-11.7,0-21.4-9.3-21.4-21.2
	c0-12.1,9.7-21.6,21.8-21.6c3.3,0,6.7,0.7,9.6,2.4c0.5,0.2,0.7,0.7,0.7,1.2L153.4,18.9L153.4,18.9z"/>
<path class="st0" d="M205.7,33.1c0,12.2-9.6,21.4-21.5,21.4s-21.5-9.2-21.5-21.4c0-11.8,9.7-21.4,21.5-21.4
	C196,11.7,205.7,21.3,205.7,33.1 M200.6,33.1c0-9-6.8-16.6-16.4-16.6c-9.6,0-16.4,7.6-16.4,16.6c0,9.4,7.5,16.6,16.4,16.6
	C193.1,49.7,200.6,42.4,200.6,33.1"/>
<path class="st0" d="M223.7,25.6h-0.1L218.7,53c-0.1,0.3-0.4,0.6-0.7,0.6h-4c-0.5,0-0.8-0.4-0.7-0.9l8-39.3c0.1-0.7,1.1-0.8,1.4-0.2
	l13,21.7c0.3,0.6,1.1,0.6,1.3,0l13-21.7c0.3-0.7,1.2-0.6,1.4,0.2l8,39.3c0.1,0.5-0.3,0.9-0.7,0.9h-4c-0.4,0-0.7-0.3-0.7-0.6
	l-4.8-27.4h-0.1L237,44.7c-0.3,0.6-1.1,0.6-1.3,0L223.7,25.6z"/>
<path class="st0" d="M274.5,53.6h-3c-0.6,0-1.1-0.5-1.1-1.1V13.6c0-0.6,0.5-1.1,1.1-1.1h6.3c12.6,0,16.6,5.6,16.6,13.1
	c0,8.7-6.6,12-14.4,12h-4c-0.2,0-0.4,0.2-0.4,0.4v14.5C275.6,53.1,275.1,53.6,274.5,53.6 M275.6,32.7c0,0.2,0.2,0.4,0.4,0.4h2.6
	c5.2,0,10.9-1,10.9-7.5c0-6.4-6.1-8.5-11.2-8.5H276c-0.2,0-0.4,0.2-0.4,0.4V32.7z"/>
<path class="st0" d="M305.9,43.7l-4.3,9.5c-0.1,0.3-0.4,0.4-0.6,0.4h-4c-0.5,0-0.9-0.5-0.6-1l18.2-39.7c0.4-0.8,1.5-0.8,1.9,0
	l18.2,39.7c0.2,0.5-0.1,1-0.6,1H330c-0.3,0-0.5-0.2-0.6-0.4l-4.3-9.5c-0.1-0.3-0.4-0.4-0.6-0.4h-17.9
	C306.2,43.3,306,43.5,305.9,43.7 M315.2,22.8l-6.8,15.4c-0.1,0.2,0.1,0.5,0.3,0.5h13.5c0.3,0,0.4-0.3,0.3-0.5l-6.8-15.4
	C315.7,22.5,315.3,22.5,315.2,22.8"/>
<path class="st0" d="M363.1,19.8c-0.5,0.3-1.1,0.2-1.4-0.3c-1.4-2-3.3-3-6.1-3c-3.3,0-6.9,2.2-6.9,5.8c0,3.2,3.2,4.9,5.7,5.9
	l2.9,1.1c5.8,2.3,10.2,5.5,10.2,12.4c0,7.5-5.8,12.8-13.1,12.8c-6.3,0-11.3-4.4-12.5-10.4c-0.1-0.6,0.2-1.1,0.8-1.3l3-0.6
	c0.6-0.1,1.2,0.3,1.3,0.9c0.5,3.9,3.9,6.7,7.9,6.7c4.4,0,7.6-3.7,7.6-8c0-4.4-3.5-6.3-7.1-7.8l-2.8-1.2c-4.7-2-8.9-4.7-8.9-10.4
	c0-6.6,5.9-10.6,12.1-10.6c4.2,0,7.7,1.9,10,5.3c0.3,0.5,0.2,1.2-0.3,1.5L363.1,19.8z"/>
<path class="st0" d="M397.8,19.8c-0.5,0.3-1.1,0.2-1.4-0.3c-1.4-2-3.3-3-6.1-3c-3.3,0-6.9,2.2-6.9,5.8c0,3.2,3.2,4.9,5.7,5.9
	l2.9,1.1c5.8,2.3,10.2,5.5,10.2,12.4c0,7.5-5.8,12.8-13.1,12.8c-6.3,0-11.3-4.4-12.5-10.4c-0.1-0.6,0.2-1.1,0.8-1.3l3-0.6
	c0.6-0.1,1.2,0.3,1.3,0.9c0.5,3.9,3.9,6.7,7.9,6.7c4.4,0,7.6-3.7,7.6-8c0-4.4-3.5-6.3-7.1-7.8l-2.8-1.2c-4.7-2-8.9-4.7-8.9-10.4
	c0-6.6,5.9-10.6,12.1-10.6c4.2,0,7.7,1.9,10,5.3c0.3,0.5,0.2,1.2-0.3,1.5L397.8,19.8z"/>
<g class="st1">
	<g>
		<g>
			<defs>
				<rect id="SVGID_1_" x="413.4" y="11.6" width="107.4" height="42.9"/>
			</defs>
			<clipPath id="SVGID_2_">
				<use xlink:href="#SVGID_1_"  style="overflow:visible;"/>
			</clipPath>
			<path class="st2" d="M418.5,34.3v-21c0-0.4-0.3-0.6-0.6-0.6H414c-0.4,0-0.6,0.3-0.6,0.6v22.9c0,0.5,0.5,0.8,0.9,0.6l3.8-1.9
				C418.4,34.8,418.5,34.6,418.5,34.3"/>
		</g>
		<g>
			<defs>
				<rect id="SVGID_3_" x="413.4" y="11.6" width="107.4" height="42.9"/>
			</defs>
			<clipPath id="SVGID_4_">
				<use xlink:href="#SVGID_3_"  style="overflow:visible;"/>
			</clipPath>
			<path class="st3" d="M437.6,42.3c0.3-0.2,0.4-0.6,0.3-0.9c-1.3-2.4-2.1-5.3-2.1-8.3c0-9.4,7.5-16.6,16.4-16.6s16.4,7.2,16.4,16.6
				c0,8.4-5.9,15.6-14.5,16.5c-0.3,0-0.6,0.3-0.6,0.6v3.5c0,0.4,0.3,0.7,0.7,0.7c10.9-1,19.5-10.2,19.5-21.3
				c0-12.2-9.6-21.4-21.5-21.4s-21.5,9.2-21.5,21.4c0,3.8,1,7.5,2.8,10.6c0.2,0.3,0.6,0.4,0.9,0.2L437.6,42.3z"/>
		</g>
		<g>
			<defs>
				<rect id="SVGID_5_" x="413.4" y="11.6" width="107.4" height="42.9"/>
			</defs>
			<clipPath id="SVGID_6_">
				<use xlink:href="#SVGID_5_"  style="overflow:visible;"/>
			</clipPath>
			<path class="st4" d="M520.8,25.1V13.3c0-0.4-0.3-0.6-0.6-0.6h-3.8c-0.4,0-0.6,0.3-0.6,0.6V27c0,0.5,0.5,0.8,0.9,0.6l3.8-1.9
				C520.7,25.6,520.8,25.4,520.8,25.1"/>
		</g>
		<g>
			<defs>
				<rect id="SVGID_7_" x="413.4" y="11.6" width="107.4" height="42.9"/>
			</defs>
			<clipPath id="SVGID_8_">
				<use xlink:href="#SVGID_7_"  style="overflow:visible;"/>
			</clipPath>
			<path class="st5" d="M490.5,23.7l10.6,11.1c0.2,0.2,0.5,0.3,0.8,0.1l3.3-1.7c0.4-0.2,0.5-0.7,0.2-1L486,11.8
				c-0.4-0.4-1.1-0.1-1.1,0.4v30.2c0,0.5,0.5,0.8,0.9,0.6l3.8-1.9c0.2-0.1,0.4-0.3,0.4-0.6V23.9C490,23.6,490.3,23.5,490.5,23.7"/>
		</g>
	</g>
</g>
<text transform="matrix(1 0 0 1 122.9421 86.6626)" class="st0 st6 st7">Navig</text>
<text transform="matrix(1 0 0 1 189.2421 86.6626)" class="st0 st6 st7">a</text>
<text transform="matrix(1 0 0 1 202.2421 86.6626)" class="st0 st6 st7">ting </text>
<text transform="matrix(1 0 0 1 253.0421 86.6626)" class="st0 st6 st7">M</text>
<text transform="matrix(1 0 0 1 274.8421 86.6626)" class="st0 st6 st7">en</text>
<text transform="matrix(1 0 0 1 303.0421 86.6626)" class="st0 st6 st7">t</text>
<text transform="matrix(1 0 0 1 311.2421 86.6626)" class="st0 st6 st7">al H</text>
<text transform="matrix(1 0 0 1 355.1421 86.6626)" class="st0 st6 st7">e</text>
<text transform="matrix(1 0 0 1 368.9421 86.6626)" class="st0 st6 st7">alt</text>
<text transform="matrix(1 0 0 1 397.0421 86.6626)" class="st0 st6 st7">h</text>
<text transform="matrix(1 0 0 1 411.3421 86.6626)" class="st0 st6 st7"> </text>
<text transform="matrix(1 0 0 1 417.6421 86.6626)" class="st0 st6 st7">P</text>
<text transform="matrix(1 0 0 1 430.9421 86.6626)" class="st0 st6 st7">a</text>
<text transform="matrix(1 0 0 1 443.9421 86.6626)" class="st0 st6 st7">th</text>
<text transform="matrix(1 0 0 1 466.3421 86.6626)" class="st0 st6 st7">wa</text>
<text transform="matrix(1 0 0 1 498.3421 86.6626)" class="st0 st6 st7">y</text>
<text transform="matrix(1 0 0 1 510.6421 86.6626)" class="st0 st6 st7">s</text>
<rect x="1.2" y="1.3" class="st8" width="520.6" height="97.3"/>
<rect x="1.2" y="1.2" class="st8" width="520.6" height="97.3"/>
</svg>
