<?xml version="1.0" encoding="utf-8"?>
<!-- Generator: Adobe Illustrator 19.2.1, SVG Export Plug-In . SVG Version: 6.00 Build 0)  -->
<svg version="1.1" id="Layer_1" xmlns="http://www.w3.org/2000/svg" xmlns:xlink="http://www.w3.org/1999/xlink" x="0px" y="0px"
	 viewBox="0 0 52.5 44.8" style="enable-background:new 0 0 52.5 44.8;" xml:space="preserve">
<style type="text/css">
	.st0{fill:#FFFFFF;}
</style>
<g>
	<path class="st0" d="M47.1,23.9L32.8,9.4c-0.4-0.4-1.1-0.4-1.6,0c0,0-2.9,2.6-6.6,6.1c-1.8,1.2-3.5,1.7-5,1.4
		c-2.1-0.4-3.3-2.2-3.3-2.2c-0.3-0.5-1.1-0.7-1.6-0.3c-0.5,0.3-0.7,1.1-0.3,1.6c0.1,0.1,1.7,2.6,4.8,3.2c2.2,0.4,4.5-0.1,6.9-1.7
		c0.1,0,0.1-0.1,0.2-0.1C28.8,15,31,13,32.1,12l13.5,13.6c0.1,0.2,0.6,1,0.5,1.8C46,28,45.6,28.5,44.9,29c-0.8,0.4-1.6,0.4-2.3,0
		c-1-0.9-6.7-6.5-10.4-10.2c-0.4-0.4-1.2-0.4-1.6,0s-0.4,1.2,0,1.6c0.9,0.9,8.9,8.9,10.5,10.3c0,0,0,0,0,0.1
		c0.3,0.6,0.7,1.2-0.4,2.6c-1,1.3-2.3,0.8-2.8,0.6L27,23.1l-1.6,1.6L36,35.3c0,0,0,0.1,0.1,0.1c0,0.1,0.1,0.2,0.1,0.3
		c0.3,0.6,0.7,1.2-0.4,2.6c-0.4,0.5-0.9,0.8-1.4,0.9c-0.6,0-1.1,0.6-1.1,1.2c0,0.6,0.5,1.1,1.1,1.1h0.1c1.2-0.1,2.3-0.7,3.1-1.8l0,0
		c0.9-1.3,1.2-2.4,1.1-3.2c0.1,0,0.1,0,0.2,0c1.1,0,2.4-0.4,3.4-1.8l0,0c0.9-1.3,1.1-2.3,1.1-3.1c0,0,0,0,0.1,0
		c0.9,0,1.7-0.3,2.3-0.6l0.1-0.1c1.3-0.9,2-2,2.2-3.2c0.3-1.9-0.8-3.4-1-3.6C47.2,24,47.1,23.9,47.1,23.9"/>
	<path class="st0" d="M36.7,0C36.1,0,31.3-0.1,26,3.7C23.1,1.3,19.6,0,15.8,0C7.1,0,0,7.1,0,15.9c0,4.8,2.1,9.2,5.7,12.2
		c-0.2,1.2,0.1,2.5,1.1,3.5l0.3,0.3C7.8,32.6,8.7,33,9.7,33c-0.3,0.6-0.5,1.3-0.5,2c0,1,0.4,2,1.2,2.8l0.3,0.3
		c0.7,0.7,1.7,1.1,2.8,1.1c0,0,0,0,0.1,0c0,1,0.4,2,1.2,2.7l0.3,0.3c0.7,0.7,1.7,1.1,2.8,1.1c1,0,2-0.4,2.8-1.2l0.9-0.9
		c0.1,0.8,0.5,1.5,1.1,2.1l0.3,0.3c0.7,0.7,1.7,1.1,2.8,1.1c1,0,2-0.4,2.8-1.2l1.5-1.5c0.7-0.7,1.1-1.7,1.1-2.8c0-1-0.4-2-1.2-2.8
		l-0.3-0.3C29,35.4,28,35,26.9,35c-0.3,0-0.7,0-1,0.1l0,0c0-1-0.4-2-1.2-2.8L24.4,32c-0.7-0.7-1.7-1.1-2.8-1.1c0,0,0,0-0.1,0
		c0-1-0.4-2-1.2-2.7L20,28c-0.7-0.7-1.7-1.1-2.8-1.1c-0.7,0-1.4,0.2-1.9,0.5c0-1-0.4-1.9-1.1-2.6l-0.3-0.3c-0.7-0.7-1.7-1.1-2.8-1.1
		c-1,0-2,0.4-2.8,1.2L6.8,26c-2.9-2.6-4.5-6.2-4.5-10.1c0-7.5,6.1-13.5,13.5-13.5c3,0,5.9,1,8.3,2.8c-0.7,0.6-1.4,1.3-2.1,2l-3,3
		c-0.4,0.4-0.4,1.2,0,1.6c0.4,0.4,1.2,0.4,1.6,0l3-3l0,0C27,5.2,30.3,3.6,32.5,3c2.4-0.7,4.1-0.7,4.1-0.7h0.1
		c7.5,0,13.5,6.1,13.5,13.5c0,1.7-0.3,3.4-0.9,5c-0.2,0.6,0.1,1.3,0.6,1.5c0.1,0.1,0.3,0.1,0.4,0.1c0.5,0,0.9-0.3,1.1-0.7
		c0.7-1.9,1.1-3.8,1.1-5.8C52.5,7.1,45.4,0,36.7,0 M24.1,39.5l1.5-1.5c0.3-0.3,0.7-0.5,1.1-0.5s0.8,0.2,1.1,0.5l0.3,0.3
		c0.3,0.3,0.5,0.7,0.5,1.1c0,0.4-0.2,0.8-0.5,1.1L26.6,42c-0.3,0.3-0.7,0.5-1.1,0.5s-0.8-0.2-1.1-0.5l-0.3-0.3
		c-0.3-0.3-0.5-0.7-0.5-1.1S23.8,39.8,24.1,39.5 M20.4,33.8c0.3-0.3,0.7-0.5,1.1-0.5s0.8,0.2,1.1,0.5l0.3,0.3
		c0.3,0.3,0.5,0.7,0.5,1.1c0,0.4-0.2,0.8-0.5,1.1l-4.1,4.2c-0.3,0.3-0.7,0.5-1.1,0.5s-0.8-0.2-1.1-0.5l-0.3-0.3
		c-0.3-0.3-0.5-0.7-0.5-1.1c0-0.4,0.2-0.8,0.5-1.1L20.4,33.8z M16.1,29.6c0.3-0.3,0.7-0.5,1.1-0.5s0.8,0.2,1.1,0.5l0.3,0.3
		c0.3,0.3,0.5,0.7,0.5,1.1s-0.2,0.8-0.5,1.1l-4.1,4.2c-0.3,0.3-0.7,0.5-1.1,0.5c-0.4,0-0.8-0.2-1.1-0.5L12,36.1
		c-0.3-0.3-0.5-0.7-0.5-1.1c0-0.4,0.2-0.8,0.5-1.1L16.1,29.6z M8.4,27.6l1.5-1.5c0.3-0.3,0.7-0.5,1.1-0.5c0.4,0,0.8,0.2,1.1,0.5
		l0.3,0.3c0.3,0.3,0.5,0.7,0.5,1.1s-0.2,0.8-0.5,1.1L11,30.2c-0.3,0.3-0.7,0.5-1.1,0.5c-0.4,0-0.8-0.2-1.1-0.5l-0.3-0.3
		C7.8,29.3,7.8,28.2,8.4,27.6"/>
</g>
</svg>
