<svg id="Layer_1" data-name="Layer 1" xmlns="http://www.w3.org/2000/svg" viewBox="0 0 52.5 44.7"><defs><style>.cls-1{fill:#fff;}</style></defs><title>partnership1</title><path class="cls-1" d="M47.1,23.9L32.8,9.4a1.21,1.21,0,0,0-1.6,0s-2.9,2.6-6.6,6.1a6.79,6.79,0,0,1-5,1.4,5.63,5.63,0,0,1-3.3-2.2A1.15,1.15,0,1,0,14.4,16a8,8,0,0,0,4.8,3.2,9.2,9.2,0,0,0,6.9-1.7c0.1,0,.1-0.1.2-0.1C28.8,15,31,13,32.1,12L45.6,25.6a3.22,3.22,0,0,1,.5,1.8A2.55,2.55,0,0,1,44.9,29a2.35,2.35,0,0,1-2.3,0c-1-.9-6.7-6.5-10.4-10.2a1.13,1.13,0,1,0-1.6,1.6c0.9,0.9,8.9,8.9,10.5,10.3v0.1c0.3,0.6.7,1.2-.4,2.6a2.19,2.19,0,0,1-2.8.6L27,23.1l-1.6,1.6L36,35.3a0.1,0.1,0,0,0,.1.1c0,0.1.1,0.2,0.1,0.3,0.3,0.6.7,1.2-.4,2.6a2.43,2.43,0,0,1-1.4.9,1.2,1.2,0,0,0-1.1,1.2,1.11,1.11,0,0,0,1.1,1.1h0.1a4.22,4.22,0,0,0,3.1-1.8h0a4.88,4.88,0,0,0,1.1-3.2h0.2a4,4,0,0,0,3.4-1.8h0a5.27,5.27,0,0,0,1.1-3.1h0.1a5.19,5.19,0,0,0,2.3-.6l0.1-.1a4.85,4.85,0,0,0,2.2-3.2,4.72,4.72,0,0,0-1-3.6,0.14,0.14,0,0,0,0-.2" transform="translate(0 0)"/><path class="cls-1" d="M36.7,0A18.35,18.35,0,0,0,26,3.7,15.83,15.83,0,0,0,0,15.9,15.78,15.78,0,0,0,5.7,28.1a4,4,0,0,0,1.1,3.5l0.3,0.3A3.63,3.63,0,0,0,9.7,33a4.55,4.55,0,0,0-.5,2,4,4,0,0,0,1.2,2.8l0.3,0.3a3.93,3.93,0,0,0,2.8,1.1h0.1a3.57,3.57,0,0,0,1.2,2.7l0.3,0.3a4,4,0,0,0,5.6-.1l0.9-.9a3.6,3.6,0,0,0,1.1,2.1L23,43.6a4,4,0,0,0,5.6-.1L30.1,42a4,4,0,0,0-.1-5.6l-0.3-.3A3.93,3.93,0,0,0,26.9,35a3.4,3.4,0,0,0-1,.1h0a4,4,0,0,0-1.2-2.8L24.4,32a3.93,3.93,0,0,0-2.8-1.1H21.5a3.57,3.57,0,0,0-1.2-2.7L20,28a3.93,3.93,0,0,0-2.8-1.1,3.83,3.83,0,0,0-1.9.5,3.63,3.63,0,0,0-1.1-2.6l-0.3-.3a4,4,0,0,0-5.6.1L6.8,26a13.53,13.53,0,0,1,9-23.6,13.84,13.84,0,0,1,8.3,2.8c-0.7.6-1.4,1.3-2.1,2l-3,3a1.22,1.22,0,0,0,0,1.6,1.22,1.22,0,0,0,1.6,0l3-3h0A19.91,19.91,0,0,1,32.5,3a16.19,16.19,0,0,1,4.1-.7h0.1A13.51,13.51,0,0,1,50.2,15.8a14.26,14.26,0,0,1-.9,5,1.24,1.24,0,0,0,.6,1.5,0.6,0.6,0,0,0,.4.1,1.23,1.23,0,0,0,1.1-.7,16.58,16.58,0,0,0,1.1-5.8A15.86,15.86,0,0,0,36.7,0M24.1,39.5L25.6,38a1.46,1.46,0,0,1,2.2,0l0.3,0.3a1.46,1.46,0,0,1,0,2.2L26.6,42a1.46,1.46,0,0,1-2.2,0l-0.3-.3a1.46,1.46,0,0,1,0-2.2m-3.7-5.7a1.46,1.46,0,0,1,2.2,0l0.3,0.3a1.46,1.46,0,0,1,0,2.2l-4.1,4.2a1.46,1.46,0,0,1-2.2,0l-0.3-.3a1.46,1.46,0,0,1,0-2.2Zm-4.3-4.2a1.46,1.46,0,0,1,2.2,0l0.3,0.3a1.46,1.46,0,0,1,0,2.2l-4.1,4.2a1.46,1.46,0,0,1-2.2,0L12,36.1a1.46,1.46,0,0,1,0-2.2Zm-7.7-2,1.5-1.5a1.61,1.61,0,0,1,1.1-.5,1.61,1.61,0,0,1,1.1.5l0.3,0.3a1.46,1.46,0,0,1,0,2.2L11,30.2a1.61,1.61,0,0,1-1.1.5,1.61,1.61,0,0,1-1.1-.5l-0.3-.3a1.6,1.6,0,0,1-.1-2.3" transform="translate(0 0)"/></svg>