<svg id="Layer_1" data-name="Layer 1" xmlns="http://www.w3.org/2000/svg" viewBox="0 0 53.4 40.5"><defs><style>.cls-1{fill:#73c13e;}</style></defs><title>quote</title><path class="cls-1" d="M19.6,0a2.34,2.34,0,0,1,1.2,1,8.78,8.78,0,0,1,1.4,3.6l-0.1.5C21.7,5.4,20.7,6,19.2,7a20.43,20.43,0,0,0-5.4,4.6,9.58,9.58,0,0,0-2.1,5.7c0,2.6,1.6,4.7,4.9,6.1a14,14,0,0,1,4.6,3A7.17,7.17,0,0,1,23,31.2a8.58,8.58,0,0,1-2.8,6.4,9,9,0,0,1-6.6,2.7c-3.4,0-6.6-1.6-9.4-4.7A16.88,16.88,0,0,1,0,23.8,23.85,23.85,0,0,1,5.9,8C10,3.4,14.5.7,19.6,0ZM49.4,0.1a3.57,3.57,0,0,1,2.3,1.5,5,5,0,0,1,1.4,3l-0.3.9c-4.5,2.8-7.4,5.1-8.7,6.8a9.42,9.42,0,0,0-2,5.7,4.25,4.25,0,0,0,.8,2.8c0.7,0.9,2.4,2,4.9,3.3,3.7,1.9,5.6,4.6,5.6,7.9a7.71,7.71,0,0,1-2.8,5.9,10,10,0,0,1-6.9,2.6c-3.4,0-6.4-1.5-9.1-4.5a16,16,0,0,1-4.1-11.1,26.64,26.64,0,0,1,2.3-10.6,23.49,23.49,0,0,1,6.8-8.8A36.56,36.56,0,0,1,49.4.1Z"/></svg>