<?xml version="1.0" encoding="utf-8"?>
<!-- Generator: Adobe Illustrator 19.2.1, SVG Export Plug-In . SVG Version: 6.00 Build 0)  -->
<svg version="1.1" id="Layer_1" xmlns="http://www.w3.org/2000/svg" xmlns:xlink="http://www.w3.org/1999/xlink" x="0px" y="0px"
	 width="53.4px" height="45.2px" viewBox="0 0 53.4 45.2" style="enable-background:new 0 0 53.4 45.2;" xml:space="preserve">
<style type="text/css">
	.st0{fill:#73C13E;}
</style>
<g>
	<path class="st0" d="M19.6,0c0.5,0.2,0.9,0.5,1.2,1c0.9,1.6,1.4,2.8,1.4,3.6l-0.1,0.5C21.7,5.4,20.7,6,19.2,7
		c-2.6,1.7-4.4,3.2-5.4,4.6c-1.4,1.9-2.1,3.8-2.1,5.7c0,2.6,1.6,4.7,4.9,6.1c2.2,1,3.7,2,4.6,3c1.2,1.4,1.8,3,1.8,4.8
		c0,2.4-0.9,4.6-2.8,6.4c-1.8,1.8-4,2.7-6.6,2.7c-3.4,0-6.6-1.6-9.4-4.7S0,28.6,0,23.8C0,17.9,2,12.6,5.9,8C10,3.4,14.5,0.7,19.6,0z
		 M49.4,0.1c0.8,0.1,1.6,0.6,2.3,1.5c1,1.2,1.4,2.2,1.4,3l-0.3,0.9c-4.5,2.8-7.4,5.1-8.7,6.8s-2,3.7-2,5.7c0,1.3,0.3,2.2,0.8,2.8
		c0.7,0.9,2.4,2,4.9,3.3c3.7,1.9,5.6,4.6,5.6,7.9c0,2.2-0.9,4.2-2.8,5.9s-4.2,2.6-6.9,2.6c-3.4,0-6.4-1.5-9.1-4.5s-4.1-6.7-4.1-11.1
		c0-3.6,0.8-7.1,2.3-10.6c1.6-3.5,3.8-6.4,6.8-8.8C42.8,3.1,46,1.3,49.4,0.1z"/>
</g>
</svg>
